<svg version="1" xmlns="http://www.w3.org/2000/svg" width="1365.333" height="1365.333" viewBox="0 0 1024.000000 1024.000000"><path d="M200.8 87.3c-5.3 4-10.8 4.2-25.8 1.4-.8-.2-2.5-.6-3.6-1-1.5-.5-4 .1-7.5 1.6-10.8 4.9-22.1 8.1-32.9 9.2-11.6 1.3-20.6 2.6-24 3.5-5 1.4-10 4.7-10.1 6.7-.1 1-.2 3.6-.3 5.8-.2 4.8-1.2 6.7-8.6 16.5-5.9 7.8-8.2 11.5-7.6 12.1.2.2.7 2 1 3.9 1 6.2 1.5 8 3.7 14.3 4.2 11.9 11.5 25.5 20 37.1.4.4 4.2-1.3 8.5-3.8s8.1-4.6 8.4-4.6c.3 0 1.1 1.5 1.9 3.2 2.9 7 6.6 13.7 12.4 22.5 5.3 8.2 6.3 9.1 7.6 7.9.9-.7 3.2-2.2 5.1-3.1 1.9-1 3.8-2.2 4.1-2.7.3-.5.9-.9 1.3-.9.3.1 3.3-1.2 6.6-2.9 4.4-2.2 10-3.7 20.3-5.6 7.8-1.3 14.8-2.5 15.5-2.6.6-.1 1.2-.5 1.2-.9 0-.3 5.8-3.6 13-7.3 12.1-6.1 13.4-6.6 19.5-6.6 6.2 0 6.5-.1 6.5-2.5 0-2.2.8-2.7 8.8-5.1 4.8-1.5 9.4-2.8 10.2-2.9.8-.1 2.8-.7 4.4-1.4 6.8-2.7 8.6-2.4 17.5 3.3l8.4 5.4 10.2-6.4c5.7-3.4 10.6-6 11-5.6.4.4 1 .7 1.3.7.4.1 2.5 1.2 4.7 2.6 2.2 1.4 9.5 6 16.2 10.2l12.2 7.6 12.8-5c7.1-2.8 13.7-5.4 14.8-5.9 5.5-2.5 17.2-6.2 19.5-6.2 2 0 12 1.1 14.5 1.6 1.1.2 5 .7 8.8 1.1 3.7.4 7 1.1 7.3 1.6.3.5.9.7 1.4.4.5-.3 6.5.2 13.4 1.2 12.1 1.6 12.6 1.8 16.3 5.4 2.1 2.1 4.3 3.8 5 3.9.6 0 1.3.5 1.5 1.1.2.6 1.6 1.1 3.1 1.1s2.7.4 2.7.8c0 1 .9 1 16.5 1.3 15.2.3 14.8.2 28.9 7.9l6.9 3.8h12.8c7.9 0 12.9.4 12.9 1 0 .5.7 1 1.5 1s1.5.4 1.5 1c0 .5.7 1 1.5 1s1.5.4 1.5 1c0 .5.4 1 1 1 .5 0 1.8.7 2.7 1.5 1 .8 2 1.4 2.3 1.3.3-.2 2 1.1 3.8 2.7 3.6 3.2 3 3.1 28.2 2.1 8-.3 11.3-.1 13.8 1.1 1.7.8 3.2 1.9 3.2 2.4s.7.9 1.5.9c.7 0 1.8.6 2.2 1.2.8 1.3 15.7 11.8 16.7 11.8.3 0 .6-2.3.6-5 0-4.9.1-5 2.9-5 4.1 0 24.7 3.7 30.4 5.4 2.6.8 4.7 1.2 4.7.9 0-.3.6 0 1.4.6.8.6 1.8 1.1 2.2 1 .5-.1 2.1.3 3.7.9 1.5.7 3.9 1.4 5.4 1.6 1.4.3 3 1.1 3.5 1.8.4.7.8.9.8.4 0-.6.5-.5 1.1.1.6.6 1.8.9 2.5.6.8-.3 1.4 0 1.4.6s.3 1 .8.9c1.4-.3 6.2 1.4 6.2 2.3 0 .5.3.8.8.7 1.9-.7 32.7 16.7 42.7 24.1 2.8 2 6.6 4.4 8.5 5.3 6 2.8 15 6.7 15.8 6.9.4.1 1.8.6 3.2 1.2 1.4.6 2.7 1.1 3 1.2.3.1 1.8.7 3.3 1.3 1.6.7 3.3 1.2 3.8 1.2s.9.4.9.8c0 .5.7.9 1.5.9s5.8 1.9 11.2 4.3c7.1 3.1 11.3 5.7 15.1 9.4 2.8 2.8 5.2 4.7 5.2 4.2 0-.4 1.1.6 2.5 2.2 1.4 1.7 5.2 5.4 8.5 8.2 5.3 4.6 6.9 5.4 13.2 6.6 3.9.7 8 2.2 9.1 3.1 2.6 2.4 9.3 11.9 11.3 16.3.4.8 1.1 1.7 1.5 2 .3.3 3.9 7 7.8 14.9 8 15.9 7.6 13.4 4.6 31.4-2.2 12.6-1.9 12.1-8.3 17.1l-5.7 4.5-3.8 12.1-3.8 12.1-3.9-3.1c-2.2-1.7-4.2-3.6-4.5-4.1-1.6-2.4-12.4 6.1-14 11-.9 2.8-8.1 6-18.2 8-8.6 1.8-8.8 1.8-9.5 5.2-.5 1.9-1 4.2-1.3 5.2-.9 3.7-5.6 10.6-9.2 13.7-6.1 4.9-10 5.5-30.2 4.7-3.1-.2-3.5.1-4.7 3.7-.8 2.2-2.4 5.3-3.7 7-1.2 1.7-2.9 4.3-3.6 5.8-1.6 3.1-8.3 6.3-15.6 7.3-7 1-3.9.2-48.8 13.1l-40.8 11.7-2.8 4.1-2.9 4.1-10.2-.1-10.3-.1-4.1 3.6c-2.2 2-5.6 4.9-7.4 6.6-1.9 1.6-4.5 4-5.9 5.2-1.3 1.3-2.5 2.3-2.6 2.3-.1.1-3.3.3-7.2.6-19.8 1.3-18 .9-25.3 6.1-16.8 12.2-31.2 18.6-46.8 20.8-8.4 1.2-25.1.3-30.1-1.6-2.7-1-2.8-1-10.5 6.3-1.6 1.6-3.6 2.8-4.6 2.9-14.7.9-23.7 3.1-33.6 8.1-6.3 3.2-15.1 9.3-17.5 12.1-1.2 1.5-3.8 1.7-18.3 1.7h-17l-12.2 7.4c-6.8 4-13.4 8.1-14.9 9l-2.6 1.8-1.6-3.9c-.9-2.1-1.8-4.9-2-6.3-.2-1.4-.6-3.5-.9-4.7-.3-1.3.1-2.8.8-3.5.7-.7 1.2-1.6 1.2-1.9-.1-.6 3-5.1 4.9-7.3 4.1-4.4 4.2-5.2 2.8-14.8-1.6-10.4-1.3-14.1 2.1-27.8l2.4-9.5-3.1-16.7-3.1-16.8 5.4-15.7c2.9-8.7 5.6-16.3 6-16.8.4-.6.5-2.1.3-3.5s-.4-3.5-.5-4.8c0-1.2-.4-2.2-1-2.2-.5 0-.6-.5-.3-1 .6-.9-.9-10-2.2-14-.3-.8-.7-3.3-.9-5.5-.4-3.9-.2-4.2 9.1-13l9.5-9 .7-20.2.6-20.2 6.8-6.8c6.2-6.2 8.2-9.6 6.2-10.5-.5-.2-1.9-2.6-3.3-5.3-1.4-2.8-2.9-5.3-3.3-5.6-.5-.3-.9-.9-.8-1.2 0-.4-1.4-3.7-3-7.3-6.3-13.8-6.6-20.5-1.7-35.4 1.2-3.6 2-6.7 1.9-6.9-.2-.2.1-.7.6-1 .9-.7 5.4-9.9 5-10.5-.1-.2.6-1.3 1.6-2.3.9-1.1 1.4-2.3 1-2.6-.3-.4 0-.7.7-.7s1.1-.3.8-.6c-.3-.3.9-3.8 2.7-7.7 1.8-4 4.1-9.9 5-13.1 3.2-11 .6-23.3-6.6-30.9-3.4-3.6-14-9.7-17-9.7-1 0-2-1.5-2.7-3.9-2.9-9.6-14.8-18-30.2-21.1-9.3-1.9-26.6-2.4-31-.9-5.4 1.9-10.2 9.7-9.4 15.1.1.9.5 4.1.8 7 .9 7.6 1.7 13.1 2.1 14.4.4 1.3-2.1 3.8-8.1 7.8-3.7 2.4-4.7 4-9.2 14.9l-5 12.2-.6 14.5c-.4 8-.8 20.8-1.1 28.5-.3 7.7-.7 20.7-1 29-.5 14.1-.9 19.5-2 25.5-.3 1.4-.7 3.8-.9 5.5-.3 1.6-1.2 7.5-2.1 13-1.6 9.4-1.8 15.9-1 30 .1 3.3.6 14.3 1 24.5s.8 21.2 1 24.5c.3 5.9.2 6.2-4.6 12.4s-4.9 6.6-5 13.5c-.1 3.9-.2 9.3-.4 12.1-.1 2.7-.6 11.6-.9 19.6-.4 8-.9 17.5-1.1 21-.2 3.5-.6 12.8-1 20.7l-.7 14.3-5 9.2-5.1 9.2v18.2c-.1 17.8-.1 18.1-2.1 17.1-4.2-2.3-17.6-1.3-17.6 1.2 0 .5 1.4 1.7 3.1 2.5 1.7.9 2.9 1.9 2.6 2.1-.5.6-4.6 1-15.2 1.9-4.4.3-9.8.8-12 1-9.8 1-20.3 1.9-34 3-5.5.4-10.7.9-11.5 1.1-.8.1-2.3.3-3.3.3-1.5.1-.2 2.5 5.9 11.4 4.2 6.1 8.2 11.8 8.9 12.5.6.7 6.1 2.1 12.1 3.2 6.1 1 12.3 2.1 13.9 2.4 1.7.3 7.1 1.3 12 2.1 13.8 2.4 16.8 3 21.5 4 .8.2 2.5.4 3.7.4 1.5.1 4 2.4 7.8 7.3 5.4 7 5.6 7.5 5 11.8-.3 2.5-.8 6.3-1.1 8.4-.2 2.2-.7 5.2-.9 6.8-.3 1.6-.1 4.6.4 6.6.6 2 1.2 4.8 1.5 6.2.2 1.4 1.4 6.8 2.5 12 1.2 5.2 2.1 9.5 2.1 9.7 0 .2-2.5 3-5.5 6.3s-5.5 6.4-5.5 6.8c0 .5 3.6 7.8 8 16.4l8 15.7v32.5l-.1 32.5 3.6 7.7c2 4.2 7 15.2 11.2 24.3 9.1 20.1 18.2 38.4 25.4 51.1 3 5.2 6.5 11.6 7.9 14.2 1.3 2.6 2.7 4.5 3.1 4.2.8-.5 15.2-5.8 20.4-7.5 1.7-.6 6.4-1.2 10.5-1.4 14.8-.8 18.5-1.5 24.5-4.4 5.9-2.9 7.3-3.3 16.5-4.6 9.3-1.3 16.4-6.3 19.3-13.5 1.8-4.5 2.2-13.7.7-15.6-.7-.7-1-1.4-.6-1.4 1.3 0-2.5-6-4.7-7.4-2.2-1.4-4.6-1.5-20.7-.1-3 .3-7.7.6-10.5.8l-5 .4.1-13.6c.1-7.5-.2-14.1-.5-14.6-.3-.6-.6-1.5-.8-2-.1-.6-1.1-3.5-2.2-6.5-1.8-4.7-2.1-7.7-2.1-20.7V844l-6-8.3c-3.3-4.7-6-8.7-6-9.1 0-1.2 2.7-3.5 3.4-2.9.3.4.6.1.6-.6s.3-1 .8-.7c.4.2 1.5-.1 2.4-.8 1.7-1.2 1.8-.9-4.8-24.6-.8-3-1.7-6.3-2-7.3-.2-.9-.7-2.7-1-4-.3-1.2-.7-3.1-.9-4.2-.2-1.1-.4-2.2-.5-2.5-.1-.3-.2-.9-.1-1.3.4-2.2 1.2-7.3 1.3-8.5.1-.6.4-1.2.7-1.2.3 0 .6-1.5.7-3.3 0-1.8.4-4.2.9-5.3.4-1 .9-2.6 1-3.4.2-.8.9-4.8 1.6-8.7 1.2-6.8 1.2-7.4-.7-10-1.1-1.6-3-5.2-4.3-8.1-1.4-2.8-2.8-5.2-3.3-5.2-.4 0-.7-.3-.6-.8.1-.4-.8-2.8-2.1-5.4-2.3-4.4-2.3-5.1-1.2-9.5.7-2.7 1.3-5.6 1.4-6.6.1-.9.5-1.7.9-1.7s.5-.9.3-2 0-2 .6-2c.5 0 .8-.3.8-.8-.1-.4 0-1 .1-1.5.1-.4.4-1.2.5-1.7.1-.6.3-1.1.5-1.3.1-.1.3-.9.5-1.7.1-.8.4-2.1.6-2.9.2-.8 4.2-2.7 8.8-4.3 8.5-2.9 18-7.5 19.3-9.3.4-.6.8-.6.8-.1s1 0 2.3-1.2c1.3-1.2 2.7-1.9 3-1.5.4.3.7.1.7-.5 0-.7.3-1.1.8-1.1.4.1.9 0 1.2-.1.3-.1 1.3-.3 2.3-.5 1-.2 2.6-.7 3.5-1.1.9-.4 2.3-.8 3-1 .8-.1 2.1-.6 3-1 .9-.4 2.5-.9 3.5-1.1 1-.1 3.2-1.1 4.9-2.1 1.7-.9 4.2-2.3 5.7-3.1 1.4-.8 3.2-2 3.9-2.8.7-.7 3.4-1.3 6-1.3 8.9.1 34.2 4.2 36.7 6 3.6 2.6 4.3 2 10.9-9.9 3.6-6.5 6.6-12.3 6.6-13 0-1.4-.9-1.4 18.8.4l16.4 1.4 4.8-3.3c4.1-2.8 9.7-4.7 15.5-5.1.6 0 1.5-.3 2-.7.6-.4 2.9-.9 5-1.1 2.2-.3 4.7-.8 5.5-1.1 1.9-.7 8.8-1.9 11.8-2 1.2-.1 2.2-.3 2.2-.7 0-.3 1-.6 2.3-.7 2.9-.2 7.2-.9 7.2-1.2 0-.1 1.4-.3 3-.6 3.3-.4 7-1.2 7-1.4 0-.1 1-.3 2.3-.4 2.4-.3 4.8-2.3 14.6-12.1 3.3-3.3 6.3-6 6.8-6s1.2-.5 1.6-1c.4-.6 7.4-1 18-1h17.4l7.5-5.7c4.2-3.2 8.5-5.8 9.7-5.8 3.2 0 7.5-5.9 7-9.5-.3-2.2-.8-2.1 12-2.7 3.9-.1 5.7-1.1 13.8-7.5l9.3-7.3 11.5.1h15.6l4.1-.1-.2-4.5c-.2-2.8.2-4.5.9-4.6.6 0 5.4-.2 10.6-.3 10.2-.4 14.3-.9 19.9-2.7 4.3-1.4 13.5-6.1 13.9-7.2.2-.4.8-.7 1.3-.7 1.6 0 13.9-11.5 13.9-13 0-1 3.9-2.5 13.5-5 4.4-1.2 11-3.5 14.7-5 3.6-1.6 6.9-2.6 7.2-2.3.3.4.6.2.6-.4 0-1 1.9-1.9 4.4-2.1.5 0 1.2-.4 1.5-.9.3-.4 2.4-1.7 4.6-2.8 4.6-2.3 16.8-13.5 19.2-17.6.9-1.5 2-2.6 2.4-2.4 1.6 1.1 7-3.1 15.9-12.3 10.5-10.7 12.6-12.5 15.5-13 1.1-.2 2.2-.7 2.5-1 .3-.4 1.6-.9 3-1 1.4-.2 2.6-.8 2.8-1.2.2-.5.9-.7 1.6-.4.9.4 1.3-1.1 1.4-5.2l.1-5.7 13.4-13.6c15.1-15.3 17.3-18.3 24.7-33.1 7.4-14.9 7.2-14.2 4.4-18.3-2.7-4.1-3-6.4-.9-9.1.8-1.1 1.5-2.6 1.5-3.4 0-.7-6.8-11.2-15-23.3-8.3-12-15-22.4-15-23 0-.6-.7-1.7-1.5-2.5-1.1-1.1-1.5-3.9-1.5-10.2v-8.7l-25.7-17c-14.1-9.4-26.2-17.9-26.7-18.9-.6-1-3.8-5.9-7.1-10.9l-6-9h-9.1l-9.2.1-8.8-6.4c-8.7-6.2-27.2-16.4-29.8-16.4-2 0-2.2-1.5-2.1-11.3l.2-8.7-10.1 5.4-10.1 5.4-3-5c-4.4-7.4-14.3-16.2-22.7-20.2-9.8-4.6-18.6-6.4-31.9-6.5l-7.7-.1-4.1-6.3c-3.5-5.5-4.5-6.3-7.4-6.5-1.8-.1-4.4-.4-5.7-.7-1.3-.3-4.2-.7-6.5-1-13.2-1.8-14.7-2.5-30.8-13.2l-15.9-10.5H602l-21.9.1-.9-2.7c-2-5.6-4.2-7-12.2-7.6-12.8-1.1-28.2-4-48.5-9.3-11.7-3-15.8-3.7-25-3.7l-11-.1.3-3.7c.5-5.4-2.6-7.1-13.9-7.6l-8.9-.4-5.6 5.4-5.6 5.5-2.5-2.3c-1.4-1.3-4.6-3.1-7.1-4-5.6-2.1-8.8-4-12.2-7-1.4-1.3-4.1-2.5-6-2.9-1.9-.3-5.7-1-8.5-1.5-2.7-.5-6.3-1.2-8-1.5-16.9-2.9-21.4-3.7-24-4.1-1.6-.3-3.8-.7-4.7-1-3.2-1-23.9-1.5-75.2-1.9l-50.9-.5-3-3.5c-5.4-6.6-10.3-7.5-22-4.1l-5.8 1.7-6.9-3.5-6.9-3.4-4.3 3.1z"/></svg>